<!--?xml version="1.0" encoding="utf-8"?-->
<!-- Generator: Adobe Illustrator 15.1.0, SVG Export Plug-In . SVG Version: 6.00 Build 0)  -->

<svg version="1.1" id="_x32_" xmlns="http://www.w3.org/2000/svg" xmlns:xlink="http://www.w3.org/1999/xlink" x="0px" y="0px" width="512px" height="512px" viewBox="0 0 512 512" style="width: 512px; height: 512px; opacity: 1;" xml:space="preserve">
<style type="text/css">

	.st0{fill:#808080;}

</style>
<g>
	<path class="st0" d="M411.438,55.875c-5.313-3.781-11.594-5.734-17.969-5.734c-3.438,0-6.906,0.578-10.25,1.75l0.625-0.219
		l-204.922,71.719c-10.797-0.734-20.766-3.047-27.516-6.109c-3.625-1.609-6.281-3.406-7.672-4.766
		c-0.703-0.672-1.078-1.203-1.266-1.5l-0.125-0.266l-0.016-0.016c-1.172-6.969-7.766-11.672-14.766-10.531
		c-6.984,1.188-11.719,7.797-10.563,14.781c1.125,6.672,4.75,12.063,8.984,16.094c6.438,6.063,14.531,10,23.703,12.969
		c9.156,2.906,19.469,4.672,30.266,5.188l2.5,0.125l208.609-73.016l0.656-0.234c0.578-0.188,1.156-0.281,1.75-0.281
		c1.109,0,2.188,0.328,3.125,0.984c1.406,1,2.25,2.641,2.25,4.359v309.313c0,10-6.313,18.938-15.781,22.235l-207.125,72.484
		l-0.375,0.172c-1.297,0.547-3.125,0.938-5.531,0.938c-4.516,0.047-10.984-1.531-17.781-4.5
		c-10.188-4.391-21.063-11.766-28.797-18.703c-3.875-3.469-6.969-6.844-8.766-9.313c-0.781-1.063-1.25-1.875-1.5-2.359
		c0.016-0.641,0.031-1.375,0.047-2.328c0.141-11.547,0.203-47.391,0.203-91.907c0-101.688-0.281-248.078-0.281-248.078v-4.734
		c0-2.281,1.453-4.313,3.594-5.063l210.844-74.391c6.703-2.359,10.219-9.688,7.844-16.375c-2.344-6.688-9.688-10.188-16.375-7.828
		L108.25,75.11l0.031-0.016c-12.469,4.359-20.797,16.094-20.797,29.297v4.75v0.016c0,0.031,0.016,9.141,0.047,24.453
		c0.063,45.953,0.219,147.359,0.219,223.594c0,25.406,0,48.031-0.063,64.844c-0.016,8.406-0.047,15.375-0.078,20.5
		c-0.016,2.547-0.031,4.656-0.063,6.234c-0.016,1.547-0.031,2.672-0.047,2.906v-0.016l-0.016,0.813
		c0.094,5.141,1.719,8.578,3.453,11.813c3.156,5.563,7.563,10.563,13,15.734c8.125,7.672,18.531,15.328,29.875,21.359
		c11.359,5.953,23.516,10.516,36.219,10.609c4.891,0,9.922-0.828,14.766-2.75l0.016,0.063l206.734-72.359
		c19.75-6.906,32.969-25.547,32.969-46.469V81.172C424.516,71.11,419.641,61.688,411.438,55.875z"></path>
	<path class="st0" d="M159.688,106.407c1.188,3.344,4.828,5.109,8.188,3.938L354.75,44.922c3.344-1.172,5.109-4.828,3.938-8.188
		c-1.172-3.328-4.844-5.094-8.188-3.922L163.625,98.219C160.281,99.391,158.5,103.063,159.688,106.407z"></path>
</g>
</svg>
